<?xml version="1.0" encoding="UTF-8" standalone="no"?>
<!DOCTYPE svg PUBLIC "-//W3C//DTD SVG 1.1//EN" "http://www.w3.org/Graphics/SVG/1.1/DTD/svg11.dtd">
<svg width="100%" height="100%" viewBox="0 0 878 169" version="1.1" xmlns="http://www.w3.org/2000/svg" xmlns:xlink="http://www.w3.org/1999/xlink" xml:space="preserve" xmlns:serif="http://www.serif.com/" style="fill-rule:evenodd;clip-rule:evenodd;stroke-linecap:round;stroke-linejoin:round;stroke-miterlimit:1.5;">
    <g id="Artboard1" transform="matrix(0.984305,0,0,0.913514,0,0)">
        <rect x="0" y="0" width="892" height="185" style="fill:none;"/>
        <g transform="matrix(1.01641,0,0,1.09467,-288.438,-274.828)">
            <g transform="matrix(133.142,0,0,133.142,386.25,411.75)">
                <path d="M0.33,-0.078C0.241,-0.078 0.175,-0.12 0.148,-0.193L0.569,-0.275C0.566,-0.433 0.453,-0.535 0.308,-0.535C0.154,-0.535 0.042,-0.422 0.042,-0.265C0.042,-0.107 0.156,0.006 0.327,0.006C0.415,0.006 0.488,-0.024 0.535,-0.08L0.483,-0.142C0.444,-0.099 0.392,-0.078 0.33,-0.078ZM0.308,-0.454C0.394,-0.454 0.457,-0.4 0.474,-0.324L0.135,-0.26L0.135,-0.27C0.135,-0.381 0.207,-0.454 0.308,-0.454Z" style="fill:rgb(23,116,185);fill-rule:nonzero;"/>
            </g>
            <g transform="matrix(133.142,0,0,133.142,458.413,411.75)">
                <path d="M0.495,-0.53L0.495,-0.45C0.451,-0.507 0.385,-0.535 0.31,-0.535C0.155,-0.535 0.042,-0.427 0.042,-0.265C0.042,-0.103 0.155,0.006 0.31,0.006C0.388,0.006 0.456,-0.024 0.499,-0.084L0.499,0L0.591,0L0.591,-0.53L0.495,-0.53ZM0.318,-0.078C0.216,-0.078 0.139,-0.152 0.139,-0.265C0.139,-0.378 0.216,-0.451 0.318,-0.451C0.419,-0.451 0.496,-0.378 0.496,-0.265C0.496,-0.152 0.419,-0.078 0.318,-0.078Z" style="fill:rgb(23,116,185);fill-rule:nonzero;"/>
            </g>
            <g transform="matrix(133.142,0,0,133.142,539.896,411.75)">
                <path d="M0.754,-0.535C0.664,-0.535 0.59,-0.497 0.55,-0.437C0.515,-0.503 0.447,-0.535 0.366,-0.535C0.286,-0.535 0.221,-0.505 0.183,-0.451L0.183,-0.53L0.091,-0.53L0.091,0L0.187,0L0.187,-0.273C0.187,-0.388 0.25,-0.449 0.346,-0.449C0.433,-0.449 0.483,-0.398 0.483,-0.294L0.483,0L0.579,0L0.579,-0.273C0.579,-0.388 0.642,-0.449 0.738,-0.449C0.825,-0.449 0.875,-0.398 0.875,-0.294L0.875,0L0.971,0L0.971,-0.305C0.971,-0.461 0.883,-0.535 0.754,-0.535Z" style="fill:rgb(23,116,185);fill-rule:nonzero;"/>
            </g>
            <g transform="matrix(133.142,0,0,133.142,671.706,411.75)">
                <path d="M0.33,-0.078C0.241,-0.078 0.175,-0.12 0.148,-0.193L0.569,-0.275C0.566,-0.433 0.453,-0.535 0.308,-0.535C0.154,-0.535 0.042,-0.422 0.042,-0.265C0.042,-0.107 0.156,0.006 0.327,0.006C0.415,0.006 0.488,-0.024 0.535,-0.08L0.483,-0.142C0.444,-0.099 0.392,-0.078 0.33,-0.078ZM0.308,-0.454C0.394,-0.454 0.457,-0.4 0.474,-0.324L0.135,-0.26L0.135,-0.27C0.135,-0.381 0.207,-0.454 0.308,-0.454Z" style="fill:rgb(23,116,185);fill-rule:nonzero;"/>
            </g>
            <g transform="matrix(133.142,0,0,133.142,743.869,411.75)">
                <path d="M0.374,-0.535C0.29,-0.535 0.222,-0.504 0.183,-0.45L0.183,-0.53L0.091,-0.53L0.091,0L0.187,0L0.187,-0.273C0.187,-0.388 0.253,-0.449 0.355,-0.449C0.446,-0.449 0.498,-0.398 0.498,-0.294L0.498,0L0.594,0L0.594,-0.305C0.594,-0.461 0.503,-0.535 0.374,-0.535Z" style="fill:rgb(23,116,185);fill-rule:nonzero;"/>
            </g>
            <g transform="matrix(133.142,0,0,133.142,825.218,411.75)">
                <path d="M0.392,-0.619C0.453,-0.619 0.511,-0.605 0.558,-0.572L0.591,-0.655C0.539,-0.691 0.467,-0.708 0.389,-0.708C0.206,-0.708 0.099,-0.61 0.099,-0.45L0.099,0L0.199,0L0.199,-0.283L0.519,-0.283L0.519,-0.369L0.199,-0.369L0.199,-0.449C0.199,-0.558 0.262,-0.619 0.392,-0.619Z" style="fill:rgb(238,202,9);fill-rule:nonzero;"/>
            </g>
            <g transform="matrix(133.142,0,0,133.142,892.588,411.75)">
                <path d="M0.495,-0.53L0.495,-0.45C0.451,-0.507 0.385,-0.535 0.31,-0.535C0.155,-0.535 0.042,-0.427 0.042,-0.265C0.042,-0.103 0.155,0.006 0.31,0.006C0.388,0.006 0.456,-0.024 0.499,-0.084L0.499,0L0.591,0L0.591,-0.53L0.495,-0.53ZM0.318,-0.078C0.216,-0.078 0.139,-0.152 0.139,-0.265C0.139,-0.378 0.216,-0.451 0.318,-0.451C0.419,-0.451 0.496,-0.378 0.496,-0.265C0.496,-0.152 0.419,-0.078 0.318,-0.078Z" style="fill:rgb(238,202,9);fill-rule:nonzero;"/>
            </g>
            <g transform="matrix(133.142,0,0,133.142,974.071,411.75)">
                <path d="M0.183,-0.441L0.183,-0.53L0.091,-0.53L0.091,0L0.187,0L0.187,-0.264C0.187,-0.38 0.251,-0.443 0.354,-0.443C0.361,-0.443 0.368,-0.443 0.376,-0.442L0.376,-0.535C0.283,-0.535 0.217,-0.503 0.183,-0.441Z" style="fill:rgb(238,202,9);fill-rule:nonzero;"/>
            </g>
            <g transform="matrix(133.142,0,0,133.142,1017.74,411.75)">
                <path d="M0.33,-0.078C0.241,-0.078 0.175,-0.12 0.148,-0.193L0.569,-0.275C0.566,-0.433 0.453,-0.535 0.308,-0.535C0.154,-0.535 0.042,-0.422 0.042,-0.265C0.042,-0.107 0.156,0.006 0.327,0.006C0.415,0.006 0.488,-0.024 0.535,-0.08L0.483,-0.142C0.444,-0.099 0.392,-0.078 0.33,-0.078ZM0.308,-0.454C0.394,-0.454 0.457,-0.4 0.474,-0.324L0.135,-0.26L0.135,-0.27C0.135,-0.381 0.207,-0.454 0.308,-0.454Z" style="fill:rgb(238,202,9);fill-rule:nonzero;"/>
            </g>
            <g transform="matrix(133.142,0,0,133.142,1089.9,411.75)">
                <path d="M0.243,0.006C0.384,0.006 0.472,-0.055 0.472,-0.151C0.472,-0.357 0.136,-0.255 0.136,-0.38C0.136,-0.422 0.177,-0.453 0.261,-0.453C0.313,-0.453 0.366,-0.442 0.414,-0.411L0.455,-0.487C0.409,-0.517 0.331,-0.535 0.262,-0.535C0.126,-0.535 0.041,-0.471 0.041,-0.376C0.041,-0.165 0.376,-0.268 0.376,-0.149C0.376,-0.104 0.339,-0.077 0.25,-0.077C0.181,-0.077 0.109,-0.1 0.064,-0.132L0.024,-0.056C0.068,-0.021 0.155,0.006 0.243,0.006Z" style="fill:rgb(238,202,9);fill-rule:nonzero;"/>
            </g>
        </g>
        <g transform="matrix(1.15987,0,0,1.54645,-478.172,-266.922)">
            <rect x="454" y="217" width="12" height="63" style="fill:rgb(23,116,185);"/>
        </g>
        <g transform="matrix(1.01595,0,0,-0.443787,-411.814,261.911)">
            <rect x="408" y="174" width="108" height="111" style="fill:none;"/>
            <clipPath id="_clip1">
                <rect x="408" y="174" width="108" height="111"/>
            </clipPath>
            <g clip-path="url(#_clip1)">
                <g id="anchor" transform="matrix(3.32746,0,0,-8.20773,413.27,419.019)">
                    <path d="M15,4C15,3.453 14.547,3 14,3C13.453,3 13,3.453 13,4C13,4.547 13.453,5 14,5C14.547,5 15,4.547 15,4ZM28,18.5L28,24C28,24.203 27.875,24.391 27.687,24.469C27.624,24.485 27.562,24.5 27.5,24.5C27.375,24.5 27.25,24.453 27.141,24.359L25.688,22.906C23.235,25.859 18.829,27.75 14,27.75C9.171,27.75 4.766,25.859 2.312,22.906L0.859,24.359C0.765,24.453 0.625,24.5 0.5,24.5C0.437,24.5 0.375,24.484 0.313,24.469C0.126,24.391 0,24.203 0,24L0,18.5C0,18.219 0.219,18 0.5,18L6,18C6.203,18 6.391,18.125 6.469,18.313C6.547,18.501 6.5,18.704 6.36,18.86L4.797,20.423C6.203,22.314 8.906,23.689 12,24.11L12,14.001L9,14.001C8.453,14.001 8,13.548 8,13.001L8,11.001C8,10.454 8.453,10.001 9,10.001L12,10.001L12,7.454C10.812,6.766 10,5.485 10,4.001C10,1.798 11.797,0.001 14,0.001C16.203,0.001 18,1.798 18,4.001C18,5.485 17.188,6.767 16,7.454L16,10.001L19,10.001C19.547,10.001 20,10.454 20,11.001L20,13.001C20,13.548 19.547,14.001 19,14.001L16,14.001L16,24.11C19.094,23.688 21.797,22.313 23.203,20.423L21.64,18.86C21.499,18.704 21.453,18.501 21.531,18.313C21.609,18.125 21.797,18 22,18L27.5,18C27.781,18 28,18.219 28,18.5Z" style="fill:rgb(23,116,185);fill-rule:nonzero;"/>
                </g>
            </g>
        </g>
        <g transform="matrix(1.01595,0,0,1.09467,-411.961,-182.024)">
            <circle cx="460" cy="210" r="19" style="fill:none;stroke:rgb(23,116,185);stroke-width:10px;"/>
        </g>
        <g transform="matrix(1.01595,0,0,1.09467,0,0)">
            <rect x="24" y="10" width="30.505" height="59" style="fill:none;"/>
        </g>
        <g id="ic_airplanemode_active_24px" transform="matrix(2.3475e-16,4.0503,-3.759,2.52941e-16,184.079,0.964962)">
            <path d="M21,16L21,14L13,9L13,3.5C13,2.67 12.33,2 11.5,2C10.67,2 10,2.67 10,3.5L10,9L2,14L2,16L10,13.5L10,19L8,20.5L8,22L11.5,21L15,22L15,20.5L13,19L13,13.5L21,16Z" style="fill:rgb(238,202,9);fill-rule:nonzero;"/>
        </g>
        <g transform="matrix(1.01595,0,0,1.09467,0,0)">
            <path d="M54.5,37.978L98.5,37.8L98.5,48.92L54.5,48.92C34.009,49.646 24.847,59.26 24.847,70.963C24.847,103.701 96.88,84.951 99.704,126L86.863,126C82.109,97.153 12.176,114.824 12.176,71.311C12.176,53.892 25.309,38.798 54.5,37.978Z" style="fill:rgb(238,202,9);fill-rule:nonzero;"/>
        </g>
        <g transform="matrix(1.01595,0,0,1.09467,-411.961,-182.024)">
            <circle cx="460" cy="210" r="19" style="fill:none;stroke:rgb(23,116,185);stroke-width:10px;"/>
        </g>
        <g transform="matrix(1.01595,0,0,1.09467,0,0)">
            <path d="M22,57L30.665,57C26.72,60.808 24.847,65.672 24.847,70.963C24.847,103.701 96.88,84.951 99.704,126L86.863,126C82.109,97.153 12.176,114.824 12.176,71.311C12.176,62.767 15.336,54.782 22,48.767L22,57ZM98.5,48.92L54.505,48.92L54.505,37.978L98.5,37.8L98.5,48.92Z" style="fill:rgb(238,202,9);fill-rule:nonzero;"/>
        </g>
    </g>
</svg>
