<svg id="Layer_1" data-name="Layer 1" xmlns="http://www.w3.org/2000/svg" viewBox="0 0 100 43.17"><defs><style>.cls-1{fill:#0c60f0;}</style></defs><title>UpLift_branding_logo_final</title><rect class="cls-1" x="56.34" y="1.82" width="5.59" height="34.04" rx="0.58" ry="0.58"/><rect class="cls-1" x="65.23" y="3" width="5.59" height="5.59" rx="0.58" ry="0.58"/><rect class="cls-1" x="65.23" y="11.74" width="5.59" height="24.12" rx="0.58" ry="0.58"/><path class="cls-1" d="M74.21,13.59V9.34c0-2.64.74-4.59,2.2-5.84a8.26,8.26,0,0,1,5.38-1.74h3a.59.59,0,0,1,.58.59v4.1a.58.58,0,0,1-.58.59h-2.6c-1.68-.06-2.48.71-2.41,2.3v7.27a.58.58,0,0,0,.58.59h4.43a.58.58,0,0,1,.58.58V22a.58.58,0,0,1-.58.58H80.39a.58.58,0,0,0-.58.58v12a.58.58,0,0,1-.59.58H74.8a.59.59,0,0,1-.59-.58V17.84"/><path class="cls-1" d="M88.81,20.33v-18a.59.59,0,0,1,.59-.59h4.42a.6.6,0,0,1,.59.59V16.63a.58.58,0,0,0,.58.59h4.43a.58.58,0,0,1,.58.58v4.26a.58.58,0,0,1-.58.58H95a.58.58,0,0,0-.58.58v5c-.08,1.59.73,2.35,2.4,2.3h2.61a.58.58,0,0,1,.58.58v4.11a.58.58,0,0,1-.58.58h-3A8.24,8.24,0,0,1,91,34.08q-2.2-1.87-2.2-5.83V24.58"/><path class="cls-1" d="M41.85,11.84H31.57a.56.56,0,0,0-.55.56V42.61a.56.56,0,0,0,.55.56h4.69a.55.55,0,0,0,.55-.56V35.87h5a11.2,11.2,0,0,0,11.2-11.2V23A11.21,11.21,0,0,0,41.85,11.84ZM47,24.67a5.15,5.15,0,0,1-5.14,5.15h-5V17.9h5A5.14,5.14,0,0,1,47,23Z"/><path class="cls-1" d="M19.57,27.74a7.81,7.81,0,0,1-5.71,2.2,7.6,7.6,0,0,1-5.64-2.2,8,8,0,0,1-2.3-6.07V2.35a.59.59,0,0,0-.59-.59H.58A.58.58,0,0,0,0,2.35v20a12.66,12.66,0,0,0,4.07,9.77,13.87,13.87,0,0,0,9.79,3.77,13.91,13.91,0,0,0,9.88-3.77,13,13,0,0,0,4-9.77V7.68l-3-3-3-3V21.67A8.12,8.12,0,0,1,19.57,27.74Z"/><polyline class="cls-1" points="23.91 0 31.02 0 26.92 3.02"/><polyline class="cls-1" points="31.02 7.11 31.02 0 27.85 3.94"/></svg>